<?xml version="1.0" encoding="UTF-8"?>
<svg xmlns="http://www.w3.org/2000/svg" width="610" height="350" viewBox="0 0 610 350" fill="none">
  <path d="M359.943 221.885L376.85 180.23H386.629L403.535 221.885H395.617L391.657 211.707H371.702L367.743 221.885H359.943ZM373.801 205.935H389.223L381.522 186.406H381.403L373.801 205.935Z" fill="#FD4A9E"></path>
  <path d="M422.92 222.852C419.094 222.901 415.325 221.932 412.011 220.048C408.799 218.21 406.165 215.533 404.398 212.313C402.562 208.841 401.604 204.984 401.604 201.069C401.604 197.154 402.562 193.296 404.398 189.825C406.24 186.582 408.956 183.905 412.246 182.09C415.72 180.175 419.646 179.201 423.626 179.267C426.943 179.197 430.234 179.857 433.259 181.2C436.068 182.477 438.505 184.433 440.342 186.885C442.193 189.389 443.428 192.282 443.952 195.336H436.418C435.778 192.539 434.168 190.05 431.866 188.297C429.471 186.531 426.538 185.617 423.547 185.706C420.896 185.642 418.279 186.312 415.994 187.64C413.794 188.954 412.013 190.849 410.853 193.112C409.547 195.569 408.873 198.305 408.891 201.079C408.862 203.891 409.536 206.667 410.853 209.161C412.042 211.446 413.866 213.351 416.112 214.653C418.421 215.974 421.055 216.643 423.724 216.587C425.954 216.616 428.16 216.147 430.179 215.214C432.109 214.32 433.802 212.996 435.123 211.346C436.473 209.652 437.388 207.662 437.791 205.545H423.96V199.57H444.227V221.769H438.086V215.774C436.397 217.957 434.196 219.703 431.67 220.86C428.941 222.161 425.951 222.841 422.92 222.852Z" fill="#FD4A9E"></path>
  <path d="M451.004 221.885V180.23H477.984V186.541H458.134V197.893H472.087V204.203H458.134V215.574H480.065V221.885H451.004Z" fill="#FD4A9E"></path>
  <path d="M484.916 221.885V180.23H492.642L515.877 211.592V180.23H522.696V221.885H515.01L491.912 190.389V221.808L484.916 221.885Z" fill="#FD4A9E"></path>
  <path d="M549.846 222.851C546.018 222.907 542.244 221.938 538.905 220.044C535.69 218.23 533.036 215.549 531.241 212.3C529.442 208.833 528.502 204.977 528.502 201.063C528.502 197.148 529.442 193.292 531.241 189.825C533.034 186.574 535.688 183.893 538.905 182.081C542.087 180.335 545.631 179.371 549.251 179.271C552.87 179.17 556.462 179.934 559.733 181.5C562.603 182.938 565.058 185.098 566.861 187.773C568.702 190.496 569.829 193.646 570.137 196.929H562.952C562.616 194.83 561.795 192.841 560.557 191.122C559.373 189.474 557.807 188.145 555.997 187.25C554.099 186.345 552.021 185.888 549.923 185.914C547.366 185.875 544.848 186.545 542.642 187.85C540.507 189.119 538.778 190.98 537.66 193.213C536.487 195.667 535.878 198.357 535.878 201.082C535.878 203.807 536.487 206.497 537.66 208.951C538.784 211.18 540.511 213.04 542.642 214.314C544.676 215.468 546.951 216.12 549.281 216.218C551.612 216.315 553.933 215.855 556.054 214.875C557.871 213.998 559.434 212.665 560.595 211.003C561.811 209.276 562.618 207.289 562.952 205.196H570.157C569.81 208.482 568.658 211.63 566.803 214.352C564.983 217.014 562.524 219.165 559.657 220.605C556.61 222.133 553.247 222.904 549.846 222.851Z" fill="#FD4A9E"></path>
  <path d="M584.438 221.885V206.82L566.279 180.23H574.982L588.283 199.682L601.466 180.23H609.871L591.792 206.82V221.885H584.438Z" fill="#FD4A9E"></path>
  <path d="M323.759 187.011C322.286 187.02 320.836 186.65 319.548 185.935C318.32 185.235 317.303 184.217 316.603 182.988C315.902 181.694 315.535 180.245 315.535 178.774C315.535 177.302 315.902 175.853 316.603 174.559C317.303 173.33 318.32 172.312 319.548 171.612C320.841 170.911 322.288 170.543 323.759 170.543C325.229 170.543 326.677 170.911 327.97 171.612C329.202 172.306 330.221 173.326 330.914 174.559C331.629 175.849 332.003 177.299 332.003 178.774C332.003 180.248 331.629 181.698 330.914 182.988C330.221 184.222 329.202 185.241 327.97 185.935C326.682 186.65 325.231 187.02 323.759 187.011ZM323.759 186.141C325.079 186.157 326.38 185.822 327.528 185.169C328.643 184.539 329.564 183.617 330.193 182.502C330.831 181.347 331.166 180.049 331.166 178.729C331.166 177.41 330.831 176.112 330.193 174.957C329.571 173.833 328.648 172.904 327.528 172.275C326.374 171.637 325.077 171.302 323.759 171.302C322.44 171.302 321.144 171.637 319.99 172.275C318.872 172.9 317.949 173.824 317.325 174.942C316.687 176.097 316.352 177.395 316.352 178.715C316.352 180.034 316.687 181.332 317.325 182.487C317.954 183.602 318.875 184.525 319.99 185.154C321.133 185.822 322.434 186.173 323.759 186.171V186.141ZM320.122 183.194V173.808H323.803C324.763 173.758 325.712 174.033 326.497 174.589C326.821 174.846 327.079 175.177 327.25 175.553C327.422 175.93 327.502 176.342 327.484 176.755C327.498 177.356 327.329 177.947 326.998 178.449C326.67 178.937 326.196 179.309 325.643 179.51L328.397 183.194H326.056L323.582 179.834H321.918V183.194H320.122ZM323.847 178.228C324.308 178.252 324.763 178.123 325.143 177.86C325.291 177.736 325.408 177.58 325.487 177.404C325.566 177.228 325.604 177.036 325.599 176.843C325.602 176.657 325.563 176.473 325.483 176.304C325.404 176.136 325.288 175.987 325.143 175.871C324.763 175.608 324.308 175.479 323.847 175.502H321.963V178.228H323.847Z" fill="#05021D"></path>
  <path d="M372.576 168.619V152.195H365.205V149H383.283V152.195H375.94V168.619H372.576Z" fill="#FD4A9E"></path>
  <path d="M381.622 168.619L389.358 149H393.842L401.578 168.619H397.934L396.112 163.827H386.975L385.154 168.619H381.622ZM388.012 161.108H395.075L391.544 151.915H391.488L388.012 161.108Z" fill="#FD4A9E"></path>
  <path d="M403.965 168.619V149H407.329V165.424H417.419V168.619H403.965Z" fill="#FD4A9E"></path>
  <path d="M420.362 168.619V149H433.002V151.971H423.669V157.324H430.227V160.295H423.669V165.648H433.983V168.619H420.362Z" fill="#FD4A9E"></path>
  <path d="M437.059 168.619V149H440.618L451.297 163.771V149H454.436V168.619H450.905L440.282 153.821V168.619H437.059Z" fill="#FD4A9E"></path>
  <path d="M464.466 168.619V152.195H457.094V149H475.172V152.195H467.829V168.619H464.466Z" fill="#FD4A9E"></path>
  <path d="M412.358 79.8019C407.808 78.2059 402.631 78.2922 397.714 77.9471C364.498 75.5099 331.262 73.3962 298.09 70.6354C294.066 70.1648 290.076 69.4445 286.141 68.4786C283.984 67.961 281.828 67.357 279.8 66.7962C278.255 66.219 276.648 65.8211 275.012 65.6101C277.449 63.7546 280.099 62.1977 282.906 60.9729C286.098 59.3553 289.377 57.9102 292.741 56.6593C299.406 54.028 306.264 51.8928 313.101 49.7791C333.074 43.5675 353.499 37.0969 373.492 31.5538C374.312 31.3382 386.283 28.2755 386.175 27.7794C383.069 13.3718 375.089 12.6817 366.03 15.4208C333.095 25.7736 300.225 36.2773 267.485 47.1692C261.049 49.447 254.987 52.6671 249.497 56.724C240.179 63.3886 240.87 71.4767 251.201 76.1354C257.825 79.4075 264.933 81.5923 272.251 82.6059C305.402 85.6255 338.638 87.7823 371.81 90.4352C376.447 90.8018 380.999 92.1175 387.836 93.4332C365.879 112.974 346.662 132.105 325.288 148.583C288.32 177.204 249.519 203.496 212.572 232.138C191.673 248.336 172.391 266.648 153.389 285.153C142.799 295.42 142.993 304.823 150.542 315.198C161.887 301.782 172.11 287.31 184.792 275.232C202.988 257.703 222.156 241.213 242.207 225.841C279.412 197.457 317.696 170.453 355.311 142.587C375.606 127.489 395.665 112.219 415.335 96.3664C422.668 90.3058 421.115 82.8215 412.358 79.8019Z" fill="#FD4A9F"></path>
  <path d="M201.118 140.452C220.379 136.376 239.143 129.884 258.015 124.06C262.702 122.514 267.157 120.337 271.258 117.59C279.282 112.392 277.319 106.806 270.654 100.335C245.117 113.276 218.891 124.061 189.299 129.819C199.63 106.526 209.142 85.7769 218.028 64.7694C224.24 50.0599 229.696 35.0269 235.283 20.037C238.324 11.8195 238.755 4.1411 227.971 0C226.224 1.48821 223.657 2.67451 222.686 4.63722C212.377 24.8035 196.46 41.0444 185.136 60.7146C169.197 88.4513 148.47 113.363 130.677 140.107C126.039 147.095 120.885 149.791 113.249 151.819C79.8402 160.726 46.6897 170.562 13.3668 179.857C7.13359 181.583 -0.134904 182.683 2.58269 191.159C5.30029 199.635 12.0726 197.026 18.0901 194.718C19.8156 194.049 21.455 193.1 23.2236 192.561L110.704 164.522L112.861 167.197C105.377 178.24 97.7632 189.196 90.4516 200.326C61.1763 244.713 31.9805 289.165 2.86335 333.682C-0.73854 339.182 -2.55054 345.156 7.43554 349.88C10.539 345.722 13.4188 341.402 16.0628 336.939C44.5542 284.22 75.7699 233.02 109.583 183.546C115.687 174.595 119.741 162.948 132.596 160.036C141.59 158.311 159.621 153.566 164.948 153.221C163.093 158.764 162.08 162.991 160.311 166.852C150.023 189.369 139.455 211.757 129.188 234.274C126.341 240.529 121.1 246.978 130.051 256.554C134.084 250.084 137.945 244.907 140.533 239.3C151.813 214.604 163.093 189.887 173.619 164.868C179.162 151.991 186.517 143.558 201.118 140.452ZM139.714 145.823L139.11 145.952C139.412 138.015 145.429 132.731 149.506 126.541C160.29 110.02 171.074 93.3904 182.397 77.1064C186.711 70.8732 191.24 64.7696 195.791 58.6873C197.948 55.7325 199.932 52.5402 202.11 49.5637C203.094 47.7999 204.346 46.1993 205.82 44.8188C213.649 39.664 207.74 53.7482 206.834 55.9913L198.487 76.7612C192.922 90.5865 183.173 114.57 177.76 128.525C173.554 139.438 152.827 144.011 139.8 145.909L139.714 145.823Z" fill="#FD4A9F"></path>
</svg>
