<?xml version="1.0" encoding="UTF-8"?>
<svg xmlns="http://www.w3.org/2000/svg" width="115" height="33" viewBox="0 0 115 33" fill="none">
  <path fill-rule="evenodd" clip-rule="evenodd" d="M5.91794 0.216271C3.57505 1.20967 0.9939 3.99118 0.159989 7.4482C-0.872472 11.8589 3.41621 13.7265 3.7736 13.1304C4.1707 12.4152 3.01911 12.1768 2.74114 9.87209C2.46317 6.93163 3.85302 3.59382 5.56055 2.16333C5.87823 1.88518 5.87823 2.28254 5.87823 2.95805L5.79881 17.7C5.79881 20.8392 5.67968 21.8326 5.44142 22.826C5.20316 23.8194 4.84577 24.4949 5.12374 24.773C5.44142 25.0512 6.83128 24.3757 7.62548 23.2631C8.53881 21.8723 9.01533 20.2431 8.97562 18.614C9.05504 16.508 9.05504 13.1702 9.05504 11.3026C9.05504 9.5542 9.09475 4.46801 9.01533 1.40835C8.97562 0.573894 6.9107 -0.220823 5.91794 0.216271ZM89.5076 14.9583C89.4679 16.2696 89.1899 17.5808 88.5942 18.7729C87.7206 20.5213 85.9337 21.0776 85.1395 18.5345C84.7424 17.1835 84.7027 14.8788 85.0203 12.9715C85.338 11.0244 86.1719 9.5542 87.6015 9.67341C89.0311 9.83235 89.6664 11.6205 89.5076 14.9583ZM65.9595 25.1307C65.9198 27.8327 65.5227 30.2168 64.6094 30.9321C63.2989 31.9255 61.5517 31.1705 61.9091 29.1837C62.2268 27.4353 63.7358 25.6472 65.9992 23.422L65.9595 25.1307ZM65.6021 14.9185C65.5624 16.2298 65.2447 17.5411 64.6888 18.7729C63.8152 20.5213 61.9885 21.0776 61.234 18.5345C60.7178 16.8259 60.8369 14.6007 61.1149 13.1702C61.4326 11.3423 62.2665 9.67341 63.696 9.67341C65.0859 9.71314 65.8007 11.2231 65.6021 14.9185ZM51.9419 14.9185C51.9022 16.2696 51.6242 17.5808 51.0683 18.7729C50.1549 20.5213 48.4077 21.0379 47.6135 18.5345C47.0575 16.7464 47.2561 14.243 47.4944 12.9317C47.8517 10.945 48.7254 9.5542 50.0755 9.67341C51.4654 9.83235 52.1404 11.6205 51.9419 14.9185ZM114.485 16.7464C114.167 16.7464 113.969 17.104 113.85 17.7C113.413 19.7663 112.936 20.2431 112.341 20.2431C111.666 20.2431 111.07 19.21 110.911 17.1835C110.792 15.5543 110.792 12.6139 110.991 9.67341C111.03 9.07737 110.832 8.48133 109.243 7.88529C108.568 7.64688 107.536 7.24952 107.02 8.48133C106.027 10.8257 105.312 13.2496 104.915 15.753C104.915 15.8325 104.836 15.8325 104.796 15.6735C104.717 14.7993 104.518 13.1702 104.518 9.79261C104.518 9.1171 104.359 8.5608 103.644 8.12371C103.168 7.80582 101.738 7.28926 101.182 7.92503C100.746 8.4416 100.229 9.83235 99.6733 11.4615L98.9189 13.6867V8.71975C98.9189 8.20318 98.5615 8.04424 98.4423 8.0045C97.8467 7.80582 97.251 7.68661 96.6157 7.64688C96.1391 7.64688 96.02 7.92503 96.02 8.32239C96.02 8.36212 95.9406 13.051 95.9406 16.349V16.7861C95.6626 18.2961 94.789 20.3226 93.7963 20.3226C92.8432 20.3226 92.3667 19.4484 92.3667 15.5543C92.3667 13.2894 92.4461 12.296 92.4858 10.6271C92.5255 9.67341 92.5652 8.95816 92.5652 8.79922C92.5652 8.28265 91.6916 8.04424 91.2548 7.92503C90.8577 7.84556 90.5003 7.80582 90.2224 7.80582C89.8253 7.84556 89.5473 8.08397 89.5473 8.44159V8.9979C89.1105 8.32239 88.4354 7.76609 87.6809 7.48793C86.2116 7.05084 84.7027 7.4482 83.5511 9.03763C82.5583 10.4681 81.9627 12.137 81.8435 13.8457C81.6847 15.3556 81.7244 16.9053 82.0024 18.2166C81.6847 19.6868 81.0096 20.2829 80.3346 20.2829C79.3418 20.2829 78.5873 18.614 78.6667 15.7927C78.7462 13.9251 79.1035 12.6139 79.5006 10.7065C79.6595 9.87209 79.5404 9.47473 79.183 9.07737C78.8653 8.71975 78.1505 8.52107 77.1578 8.75948C76.443 8.91842 75.4105 9.1171 74.4972 9.23631C74.4972 9.23631 74.5369 9.03763 74.6163 8.64027C74.8546 6.57401 72.5911 6.73295 71.8763 7.40846C71.4395 7.80582 71.1615 8.28265 71.0424 9.1171C70.8836 10.4284 71.9557 11.0642 71.9557 11.0642C71.241 13.7265 70.0894 16.1901 68.501 18.4153V17.7C68.501 14.2828 68.5407 11.5807 68.5407 10.6271C68.5804 9.67341 68.6201 8.95816 68.6201 8.79922C68.6201 8.44159 68.3818 8.28265 67.945 8.12371C67.5479 7.96476 67.0714 7.84556 66.5949 7.80582C65.9992 7.76609 65.6021 8.08397 65.6021 8.48133V8.9979C65.1653 8.28265 64.4902 7.76609 63.7358 7.48793C62.2665 7.05084 60.7575 7.4482 59.6059 9.03763C58.6529 10.4681 58.0572 12.137 57.8984 13.8457C57.7395 15.4351 57.7793 16.7861 57.9778 17.9782C57.7395 19.1305 57.0645 20.3226 56.31 20.3226C55.3569 20.3226 54.801 19.4882 54.801 15.5543C54.801 13.2894 54.8804 12.296 54.9201 10.6271C54.9598 9.67341 54.9996 8.95816 54.9996 8.79922C54.9996 8.28265 54.1259 8.04424 53.6891 7.92503C53.2523 7.80582 52.8949 7.80582 52.6169 7.80582C52.2596 7.84556 51.9816 8.16344 51.9816 8.40186V8.95816C51.5448 8.24292 50.8697 7.72635 50.1152 7.4482C48.6459 7.0111 47.137 7.40846 45.9854 8.9979C45.2309 10.031 44.5955 11.2231 44.2778 13.7662C44.1984 14.4417 44.1587 15.157 44.1587 15.8325C43.841 17.6603 42.5306 19.8061 41.4187 19.8061C40.7834 19.8061 40.148 18.5742 40.148 15.9517C40.148 12.4549 40.3863 7.4482 40.3863 6.97137L42.0541 6.93163C42.7291 6.93163 43.3645 6.93163 44.2778 6.8919C44.7544 6.85216 45.1912 5.22299 44.7146 5.02431C44.5161 4.94484 42.9674 4.86537 42.3718 4.82563C41.8555 4.82563 40.4657 4.70642 40.4657 4.70642C40.4657 4.70642 40.5848 1.36861 40.6245 1.05072C40.6642 0.732837 40.2671 0.61363 40.0289 0.494422C39.5126 0.295743 38.9964 0.136799 38.4802 0.0573277C37.7257 -0.101616 37.3683 0.0573277 37.2889 0.693101C37.1697 1.6865 37.13 4.58722 37.13 4.58722C36.5741 4.58722 34.6283 4.46801 34.0724 4.46801C33.5561 4.46801 32.9605 6.73295 33.715 6.77269L36.9712 6.85216L36.9315 13.6073V14.0841C36.4153 16.8656 34.5489 18.3756 34.5489 18.3756C34.946 16.5477 34.1121 15.157 32.6428 14.0046C32.0869 13.5675 31.0147 12.7728 29.7837 11.8589C29.7837 11.8589 30.4985 11.1834 31.0941 9.79261C31.5309 8.79922 31.5706 7.68661 30.4587 7.4482C28.6718 7.0111 27.2025 8.32239 26.7657 9.75288C26.4083 10.6668 26.6069 11.7397 27.2819 12.4549L27.4408 12.6536C27.0437 13.4086 26.4877 14.4814 26.0112 15.2762C24.7008 17.5014 23.7478 19.2895 22.9933 19.2895C22.3976 19.2895 22.3976 17.5014 22.3976 15.7927C22.3976 14.3225 22.5167 12.137 22.5962 9.87209C22.6359 9.1171 22.2388 8.68001 21.6034 8.32239C21.0872 7.96476 20.5312 7.72635 19.9356 7.60714C19.2208 7.60714 17.1956 7.72635 15.2498 13.2894C15.0115 14.0046 14.535 15.2762 14.535 15.2762L14.5747 8.60054C14.5747 8.44159 14.4953 8.28265 14.2968 8.20318C13.7011 7.88529 13.026 7.68661 12.351 7.64688C11.9936 7.64688 11.795 7.80582 11.795 8.16344L11.7156 18.6537C11.7156 19.4484 11.7553 20.3624 11.8347 20.7994C11.9142 21.1968 12.0333 21.5147 12.1921 21.7134C12.351 21.9121 12.5098 22.071 12.8275 22.1107C13.1055 22.1902 14.6542 22.3491 14.7336 21.7928C14.8527 21.0776 14.8527 20.3226 15.6469 17.5014C16.8779 13.1304 18.506 10.945 19.3002 10.19C19.4194 10.031 19.5782 10.031 19.5782 10.2694L19.3399 15.6735C19.1414 21.1571 20.1341 22.1505 21.5637 22.1505C22.6359 22.1505 24.1846 21.0776 25.8524 18.3358L28.5924 13.7662L30.2205 15.2364C31.5309 16.4682 31.9677 17.6206 31.65 18.7332C31.4515 19.5676 30.6176 20.4816 29.1483 19.6074C28.7115 19.369 28.5527 19.1703 28.1159 18.8921C27.8776 18.7332 27.5202 18.6934 27.3217 18.8524C26.7657 19.2497 26.448 19.8061 26.2892 20.4418C26.1304 21.0776 26.7657 21.3955 27.4011 21.6736C27.957 21.9121 29.188 22.1505 29.9425 22.1902C32.9605 22.3094 35.3431 20.7597 37.0109 16.7464C37.3286 20.2034 38.5993 22.1505 40.7834 22.1505C42.2526 22.1505 43.7616 20.2431 44.397 18.3756C44.5955 19.1305 44.8735 19.8061 45.2309 20.3624C46.9384 23.0644 50.2343 22.4684 51.9022 20.1637C52.4184 19.4484 52.4978 19.21 52.4978 19.21C52.6169 20.7994 53.8877 22.071 55.4761 22.1505C56.588 22.1505 57.7395 21.6339 58.5735 19.8061C58.6529 20.0047 58.772 20.2034 58.8911 20.3624C60.5987 23.0644 63.8946 22.4684 65.5624 20.1637L65.761 19.8855L65.8007 21.316L64.2917 22.7068C61.7105 25.0512 59.7648 26.8393 59.6456 28.9056C59.4471 31.5679 61.5914 32.5215 63.2195 32.6805C64.8873 32.7599 66.436 31.9255 67.3494 30.5347C68.1436 29.3824 68.6598 26.8393 68.6201 24.3359L68.5407 20.72C70.963 17.8987 72.8691 14.6404 74.0604 11.1039C74.0604 11.1039 75.0134 11.1039 76.0062 11.0642C76.3238 11.0244 76.443 11.1039 76.3636 11.3423C76.2841 11.6205 75.0928 16.2696 76.2047 19.369C76.9592 21.475 78.6667 22.1505 79.6595 22.1505C80.8111 22.1505 81.9627 21.2763 82.5583 19.9253L82.7966 20.3624C84.5041 23.0644 87.8 22.4684 89.4679 20.1637C89.8253 19.6471 90.0635 19.21 90.0635 19.21C90.4209 21.4352 92.1681 22.1505 93.1609 22.1505C94.1934 22.1505 95.1861 21.7134 95.9803 19.8458C96.02 20.6802 96.0597 21.3557 96.1392 21.5942C96.1789 21.7134 96.4965 21.9121 96.6951 21.9518C97.6481 22.3094 98.6012 22.1505 98.9586 22.071C99.1968 22.0313 99.3954 21.8326 99.4351 21.316C99.5145 19.965 99.4748 17.7001 99.8719 15.9914C100.547 13.1304 101.182 12.0576 101.5 11.5013C101.659 11.1834 101.857 11.1436 101.857 11.4615C101.857 12.0973 101.897 14.0444 102.175 16.5874C102.374 18.4948 102.652 19.6074 102.85 19.965C103.446 20.9981 104.161 21.0379 104.717 21.0379C105.074 21.0379 105.868 20.9187 105.789 20.2829C105.749 19.965 105.828 18.0179 106.503 15.2364C106.94 13.4086 107.655 11.7794 107.933 11.1436C108.052 10.945 108.092 11.1039 108.092 11.1436C108.012 12.3754 107.893 16.508 108.41 18.7332C109.085 21.7531 111.11 22.1107 111.825 22.1107C113.334 22.1107 114.525 20.9584 114.962 17.9782C115.081 17.3027 114.922 16.7464 114.485 16.7464Z" fill="#FD4A9E"></path>
</svg>
