<svg width="398" height="73" viewBox="0 0 398 73" fill="none" xmlns="http://www.w3.org/2000/svg">
<path d="M302.585 19.5764C279.233 19.4728 255.96 17.4248 232.67 15.9742C209.951 14.5642 187.198 13.6723 164.41 13.2984C141.87 12.9571 119.319 13.3716 96.8341 15.0111C80.58 16.1936 64.216 17.7538 48.2062 20.8805C39.3981 22.5993 -5.28992 32.0343 11.8499 47.936C17.3045 52.9948 26.1065 53.2509 33.0516 54.4211C43.9915 56.2496 54.8764 57.944 65.9324 58.9557C89.272 61.1011 112.758 62.1494 136.177 62.9844C159.596 63.8194 182.997 64.0632 206.422 64.0998C229.634 64.1303 252.845 64.1608 276.057 63.3257C298.48 62.5212 320.94 60.8512 343.247 58.2486C353.603 57.1458 363.846 55.1599 373.862 52.3123C380.147 50.4838 386.689 48.6553 392.187 44.9984C396.194 42.3227 399.254 38.0622 397.489 33.1558C396.102 29.2916 392.401 26.6281 388.986 24.6229C378.907 18.7352 366.899 15.9863 355.568 13.652C323.133 6.94755 290.075 2.99804 257.011 1.32193C234.594 0.188269 212.066 -0.293303 189.631 0.182102C168.551 0.633128 147.484 2.42503 126.801 6.56959C106.259 10.6776 86.7372 17.4979 67.826 26.4392C50.79 34.4906 33.7358 43.0359 18.5018 54.214C14.8979 56.8592 11.3978 59.6506 8.07492 62.6371C4.97192 65.4164 2.82185 68.9271 0.0975684 72.0051C-0.653748 72.8462 3.1517 73.4921 4.06794 72.4926C7.16483 69.0002 11.3367 66.2454 14.8612 63.204C18.1597 60.3638 21.5803 57.7185 25.1292 55.1708C32.6646 49.8476 40.5203 44.991 48.6521 40.6283C65.2788 31.5895 82.6202 23.0199 100.572 17.0042C139.879 3.84522 181.201 2.58987 222.286 3.19326C243.982 3.5102 265.654 4.41201 287.284 6.45382C303.611 8.00803 319.718 10.6106 335.899 13.2193C346.418 14.9137 356.93 16.8275 367.174 19.7835C372.366 21.2768 377.558 23.0138 382.328 25.5493C385.627 27.2986 389.371 29.6939 390.88 33.296C395.614 44.7788 372.494 49.2403 365.39 51.0749C355.33 53.6774 344.988 54.9697 334.659 55.9937C324.208 57.0359 313.732 58.0111 303.257 58.773C281.218 60.3699 259.106 60.7965 237.013 60.9062C214.736 61.0159 192.422 61.0463 170.17 60.6928C147.917 60.3393 125.683 59.5591 103.462 58.3462C81.3802 57.1272 59.195 55.9081 37.4129 51.8367C31.0481 50.6543 22.1423 50.8921 17.4328 45.8394C15.0506 43.2917 14.1893 40.1895 16.3821 37.2517C18.7888 34.0275 23.0279 32.138 26.6257 30.6142C31.4476 28.6454 36.4115 27.0418 41.4749 25.8175C52.3049 23.0382 63.3119 21.478 74.4045 20.1371C95.9328 17.6155 117.576 16.1915 139.25 15.8706C183.058 15.0905 226.653 18.205 270.37 20.2773C281.114 20.7892 291.859 21.0574 302.609 20.8867C304.289 20.8867 304.313 19.6252 302.609 19.613L302.585 19.5764Z" fill="#FD4A9E"/>
</svg>
