<svg width="1780" height="840" viewBox="0 0 1780 840" fill="none" xmlns="http://www.w3.org/2000/svg">
<g clip-path="url(#clip0_904_2503)">
<path d="M880 220.878L1114.63 68.3695C1119.96 64.9073 1126.68 71.2239 1123.78 76.8754C1062.15 196.898 1037.5 386.007 1311.58 329.51C1676.57 254.273 1943.85 20.5137 1853.8 0.799085C1763.75 -18.9155 1436.7 332.564 1572.15 347.609C1803.98 373.36 2078.45 32.9866 2465 32.9866" stroke="url(#paint0_linear_904_2503)"/>
</g>
<path d="M1186.4 674.834L1012.05 776.213C1006.56 779.406 1000.03 772.703 1003.09 767.138C1051.1 679.947 1070.96 546.952 869.596 578.126C595.49 620.562 388.162 784.451 454.374 802.435C520.587 820.419 776.696 571.231 676.564 555.039C505.178 527.327 288.568 770.203 1.21955 755.914" stroke="url(#paint1_linear_904_2503)"/>
<defs>
<linearGradient id="paint0_linear_904_2503" x1="906.967" y1="0" x2="2448.9" y2="0" gradientUnits="userSpaceOnUse">
<stop stop-color="white" stop-opacity="0"/>
<stop offset="0.515625" stop-color="white"/>
<stop offset="1" stop-color="white" stop-opacity="0"/>
</linearGradient>
<linearGradient id="paint1_linear_904_2503" x1="1158.19" y1="838.03" x2="11.968" y2="781.03" gradientUnits="userSpaceOnUse">
<stop stop-color="white" stop-opacity="0"/>
<stop offset="0.515625" stop-color="white"/>
<stop offset="1" stop-color="white" stop-opacity="0"/>
</linearGradient>
<clipPath id="clip0_904_2503">
<rect width="900" height="349" fill="white" transform="translate(880)"/>
</clipPath>
</defs>
</svg>
