<svg width="81" height="81" viewBox="0 0 81 81" fill="none" xmlns="http://www.w3.org/2000/svg">
<path fill-rule="evenodd" clip-rule="evenodd" d="M31.9606 20.4569C32.0193 23.4504 35.5118 28.2634 37.8889 27.3536C38.9161 26.9428 38.916 26.5026 37.8008 23.3037C35.1301 15.7026 31.9019 18.0504 31.9606 20.4569ZM51.3302 27.2362C50.5084 29.5547 53.3552 29.9656 55.3215 27.8232C57.3172 25.6221 59.4595 22.3352 60.6041 20.1047C61.8661 17.9624 59.4008 16.8765 57.3465 18.6374C54.9106 20.6917 51.8878 25.6221 51.3302 27.2362ZM10.8889 25.446C9.06936 26.1797 15.1737 33.7515 17.6389 33.8102C20.515 33.8689 20.7497 33.2232 18.7541 30.5526C15.6139 26.3265 12.9726 24.595 10.8889 25.446ZM38.4759 36.3341C37.39 37.4199 36.0986 38.9167 35.5997 39.6211C31.3149 46.0189 31.2562 46.0776 29.2899 44.5808C24.741 41.1765 17.2573 38.858 18.7247 44.7863C19.6345 48.3667 22.3345 54.9113 23.0389 57.083C24.8585 62.8058 25.8269 63.745 29.0552 62.9819C37.0672 61.045 48.5129 60.9863 56.7009 62.8352C58.7259 63.3047 58.8433 63.07 59.0487 58.9906C59.4596 50.7439 64.2138 42.7026 64.2138 40.12C64.2138 37.2145 58.7259 39.3863 51.2716 45.2265L50.5085 45.8134L49.4226 45.0797C47.1921 43.583 46.0769 44.7569 47.3388 47.2515C48.366 49.2765 49.2171 49.9515 51.4769 48.8656C52.7682 48.2493 54.5585 47.0754 57.0824 45.2852C58.0802 44.5808 58.902 44.0819 58.902 44.17C58.902 44.5808 57.1118 52.27 57.1118 52.2993L52.6508 51.9178C49.0997 51.7711 48.6889 53.6493 52.3573 54.2069C52.7389 54.2656 56.4954 54.7352 56.4954 54.7352C56.4954 54.7352 56.3487 56.3786 55.9378 57.3178C55.4976 58.2569 54.7639 58.4917 53.5606 58.0808C44.14 54.97 28.7911 58.7558 28.7617 58.7558C28.2041 58.8439 23.0976 45.3732 23.5085 44.9623C23.5672 44.9037 24.1834 45.2852 24.8878 45.8134C32.841 51.595 33.6628 51.4189 38.9161 42.9961L41.3813 39.0341L42.3497 40.4721C45.1671 44.6689 49.1584 42.82 46.928 39.7385C46.165 38.7113 44.9031 37.1852 42.8781 34.808C41.9683 33.7221 40.6183 34.1917 38.4759 36.3341ZM76.6574 35.8939C75.6009 36.5102 70.0835 41.7928 69.4378 42.7906C68.0585 44.9917 70.9346 45.4906 73.5465 43.495C76.5987 41.1765 80.9129 37.1852 80.9129 36.6569C80.9422 35.6004 78.0955 35.0721 76.6574 35.8939ZM3.96281 49.9515C8.24759 51.008 10.7128 51.2722 11.6812 50.7439C13.266 49.8928 12.5323 49.2765 8.77582 48.3373C8.42365 48.2493 4.96058 47.2808 2.5834 47.2808C0.881228 47.2808 -2.90458 48.22 3.96281 49.9515Z" fill="#FD4A9E"/>
</svg>
