<svg width="49" height="40" viewBox="0 0 49 40" fill="none" xmlns="http://www.w3.org/2000/svg">
<path d="M47.7007 9.12258C47.1743 8.94011 46.5755 8.94998 46.0067 8.91052C42.1646 8.63189 38.32 8.39024 34.4829 8.07462C34.0174 8.02081 33.5558 7.93846 33.1007 7.82804C32.8512 7.76886 32.6017 7.69981 32.3672 7.6357C32.1884 7.56971 32.0026 7.52422 31.8134 7.5001C32.0952 7.28796 32.4017 7.10997 32.7265 6.96995C33.0957 6.78502 33.4749 6.61981 33.8641 6.47679C34.6351 6.17597 35.4284 5.93187 36.2193 5.69022C38.5295 4.98007 40.8922 4.24032 43.2049 3.60661C43.2997 3.58196 44.6844 3.23181 44.672 3.1751C44.3127 1.52795 43.3896 1.44905 42.3417 1.76221C38.532 2.94579 34.7299 4.14662 30.9426 5.39184C30.1982 5.65225 29.497 6.02038 28.8619 6.4842C27.7841 7.24613 27.864 8.1708 29.059 8.70341C29.8253 9.07749 30.6474 9.32726 31.494 9.44314C35.3286 9.78835 39.1732 10.0349 43.0103 10.3382C43.5467 10.3801 44.0732 10.5306 44.8641 10.681C42.3243 12.915 40.1014 15.1021 37.6289 16.986C33.3527 20.2581 28.8644 23.2639 24.5907 26.5384C22.1732 28.3902 19.9428 30.4837 17.7448 32.5994C16.5198 33.7731 16.5422 34.8481 17.4154 36.0342C18.7277 34.5005 19.9103 32.8459 21.3773 31.4651C23.482 29.4611 25.6993 27.5759 28.0187 25.8184C32.3223 22.5735 36.7507 19.4863 41.1018 16.3005C43.4495 14.5744 45.7697 12.8287 48.045 11.0163C48.8933 10.3234 48.7136 9.46779 47.7007 9.12258Z" fill="#FD4A9E"/>
<path d="M23.2641 16.0572C25.492 15.5912 27.6625 14.849 29.8455 14.1832C30.3877 14.0064 30.9031 13.7575 31.3774 13.4435C32.3055 12.8492 32.0785 12.2106 31.3076 11.4708C28.3536 12.9503 25.3199 14.1832 21.8969 14.8416C23.092 12.1785 24.1922 9.80644 25.2201 7.40477C25.9386 5.7231 26.5698 4.00445 27.216 2.29073C27.5678 1.35126 27.6176 0.473431 26.3702 0C26.1681 0.170139 25.8712 0.305764 25.759 0.53015C24.5664 2.83566 22.7252 4.6924 21.4154 6.9412C19.5717 10.1122 17.1741 12.9602 15.1159 16.0178C14.5795 16.8167 13.9832 17.1249 13.1 17.3567C9.23541 18.3751 5.40077 19.4995 1.54619 20.5622C0.825168 20.7595 -0.0156048 20.8852 0.29875 21.8543C0.613104 22.8233 1.39648 22.525 2.09255 22.2611C2.29214 22.1847 2.48178 22.0762 2.68636 22.0146L12.8056 18.809L13.0551 19.1148C12.1894 20.3773 11.3086 21.6299 10.4629 22.9022C7.07649 27.9768 3.6993 33.0588 0.331215 38.1482C-0.0854297 38.777 -0.295031 39.46 0.860097 40C1.21908 39.5247 1.55221 39.0308 1.85805 38.5205C5.15374 32.4935 8.76458 26.64 12.6759 20.9838C13.3819 19.9605 13.8509 18.629 15.3379 18.2962C16.3782 18.0989 18.4639 17.5564 19.0802 17.517C18.8656 18.1507 18.7484 18.634 18.5438 19.0753C17.3538 21.6496 16.1312 24.2091 14.9437 26.7834C14.6143 27.4985 14.0081 28.2358 15.0435 29.3306C15.51 28.5908 15.9566 27.999 16.256 27.3579C17.5608 24.5346 18.8656 21.7088 20.0831 18.8485C20.7243 17.3764 21.5751 16.4123 23.2641 16.0572ZM16.1612 16.6712L16.0913 16.686C16.1263 15.7786 16.8223 15.1745 17.2939 14.4668C18.5413 12.578 19.7887 10.6769 21.0986 8.81519C21.5975 8.10258 22.1214 7.40478 22.6479 6.70943C22.8974 6.37162 23.1269 6.00665 23.3788 5.66638C23.4927 5.46472 23.6374 5.28173 23.808 5.12391C24.7136 4.53459 24.03 6.14476 23.9252 6.40121L22.9597 8.77573C22.316 10.3563 21.1883 13.0983 20.5621 14.6936C20.0756 15.9413 17.6781 16.4641 16.1712 16.6811L16.1612 16.6712Z" fill="#FD4A9E"/>
</svg>
