<svg width="70" height="57" viewBox="0 0 70 57" fill="none" xmlns="http://www.w3.org/2000/svg">
<path d="M67.971 12.9999C67.2208 12.7399 66.3676 12.7539 65.557 12.6977C60.082 12.3006 54.6034 11.9563 49.1355 11.5065C48.4723 11.4299 47.8145 11.3125 47.1659 11.1552C46.8104 11.0708 46.4549 10.9724 46.1207 10.8811C45.866 10.787 45.6012 10.7222 45.3315 10.6878C45.7331 10.3855 46.17 10.1319 46.6327 9.93237C47.1588 9.66884 47.6992 9.43342 48.2539 9.22963C49.3524 8.80095 50.4829 8.45311 51.6099 8.10876C54.9021 7.0968 58.2688 6.04265 61.5645 5.13962C61.6996 5.10448 63.6728 4.60553 63.655 4.52471C63.1431 2.17753 61.8276 2.0651 60.3344 2.51134C54.9056 4.19794 49.4875 5.90913 44.0907 7.68357C43.0299 8.05465 42.0307 8.57924 41.1257 9.24018C39.5898 10.3259 39.7036 11.6436 41.4065 12.4025C42.4985 12.9356 43.6701 13.2915 44.8764 13.4567C50.3408 13.9486 55.8193 14.3 61.2872 14.7322C62.0515 14.7919 62.8018 15.0062 63.9288 15.2206C60.3096 18.404 57.1419 21.5207 53.6187 24.2052C47.5251 28.868 41.1293 33.1512 35.0392 37.8175C31.5942 40.4563 28.4159 43.4395 25.2838 46.4543C23.5382 48.1268 23.5701 49.6588 24.8145 51.3489C26.6845 49.1634 28.3696 46.8056 30.4601 44.8379C33.4593 41.9822 36.619 39.2958 39.9241 36.7915C46.0568 32.1674 52.3672 27.7681 58.5675 23.2284C61.9129 20.7688 65.2193 18.281 68.4616 15.6984C69.6704 14.7111 69.4144 13.4918 67.971 12.9999Z" fill="#FD4A9E"/>
<path d="M33.1513 22.8815C36.3261 22.2174 39.4191 21.1598 42.5299 20.2111C43.3025 19.9591 44.0369 19.6045 44.7128 19.157C46.0354 18.3101 45.7118 17.4001 44.6133 16.346C40.4039 18.4542 36.0808 20.2111 31.2031 21.1493C32.906 17.3544 34.4739 13.9742 35.9386 10.5518C36.9625 8.15542 37.862 5.70634 38.7828 3.26429C39.2841 1.92555 39.3551 0.674639 37.5775 0C37.2896 0.242449 36.8665 0.435713 36.7065 0.755464C35.0071 4.04082 32.3834 6.68667 30.517 9.89121C27.8897 14.4099 24.4731 18.4683 21.5401 22.8253C20.7757 23.9638 19.926 24.403 18.6675 24.7333C13.1605 26.1845 7.6961 27.7867 2.20332 29.3011C1.17586 29.5822 -0.0222369 29.7614 0.425718 31.1423C0.873673 32.5232 1.98998 32.0981 2.98188 31.7221C3.2663 31.6132 3.53654 31.4586 3.82807 31.3707L18.248 26.8029L18.6035 27.2386C17.3698 29.0376 16.1148 30.8226 14.9096 32.6357C10.084 39.867 5.2715 47.1088 0.471981 54.3612C-0.121737 55.2572 -0.420419 56.2305 1.22564 57C1.7372 56.3227 2.21189 55.6189 2.64772 54.8917C7.34408 46.3032 12.4895 37.962 18.0631 29.902C19.0692 28.4438 19.7376 26.5464 21.8565 26.072C23.339 25.7909 26.3111 25.0179 27.1893 24.9617C26.8835 25.8647 26.7165 26.5534 26.4249 27.1823C24.7291 30.8507 22.987 34.498 21.2947 38.1663C20.8254 39.1853 19.9616 40.2359 21.437 41.7961C22.1018 40.7419 22.7381 39.8986 23.1647 38.9851C25.0241 34.9618 26.8835 30.9351 28.6185 26.8591C29.5321 24.7614 30.7445 23.3875 33.1513 22.8815ZM23.0297 23.7564L22.9301 23.7775C22.9799 22.4845 23.9718 21.6236 24.6438 20.6152C26.4214 17.9236 28.199 15.2145 30.0654 12.5616C30.7765 11.5462 31.5231 10.5518 32.2732 9.56094C32.6287 9.07955 32.9558 8.55948 33.3149 8.07458C33.477 7.78722 33.6833 7.52647 33.9263 7.30158C35.2169 6.46179 34.2427 8.75629 34.0934 9.12172L32.7176 12.5054C31.8004 14.7577 30.1934 18.665 29.301 20.9384C28.6078 22.7164 25.1913 23.4613 23.0439 23.7705L23.0297 23.7564Z" fill="#FD4A9E"/>
</svg>
