<svg width="87" height="106" viewBox="0 0 87 106" fill="none" xmlns="http://www.w3.org/2000/svg">
<path d="M11.8058 55.7035C7.37779 56.9995 8.70968 59.7354 7.01768 58.8714C4.85768 57.7554 1.32968 58.7634 0.35768 60.8514C-1.22632 64.1994 2.62568 70.7516 8.45768 74.3156C9.28568 74.8196 10.5816 75.6476 11.3016 76.1156C15.1536 78.5996 17.8177 73.4514 17.9977 63.0114C18.1057 57.1794 15.8738 54.4795 11.8058 55.7035ZM12.7416 72.1556L12.2737 73.7394C6.54972 67.9794 3.38179 65.0635 3.34579 62.1835C3.30979 59.8435 4.13768 59.9514 6.29768 62.6514C7.55768 64.2354 8.31372 64.8476 9.03372 64.9556C12.2377 65.3876 10.1856 61.7156 11.8416 58.6556C12.3456 57.6836 12.9576 58.0075 13.8216 59.6635C14.6496 61.3915 14.1456 67.4396 12.7416 72.1556Z" fill="#FD4A9E"/>
<path d="M77.3252 36.4418C75.7052 36.8738 75.345 36.8377 74.661 36.3697C73.797 35.7937 71.4571 35.7218 70.0891 36.2618C66.0211 37.8818 64.5451 46.3776 67.0291 53.7576C68.9011 59.3376 71.2052 58.6897 77.3252 50.9497C84.9572 41.2657 84.9572 34.4258 77.3252 36.4418ZM79.2331 42.1656C77.6851 45.8376 71.5291 52.6777 71.0971 51.1297C70.5571 49.0417 70.3771 43.5698 70.7731 41.3018C71.5651 37.0538 73.2931 36.0458 73.2931 39.8618C73.2931 41.8058 74.7691 42.4176 75.9931 40.9776C76.2811 40.6176 77.0371 39.7176 77.6491 38.9976C79.5571 36.7296 80.6011 38.8896 79.2331 42.1656Z" fill="#FD4A9E"/>
<path d="M44.5281 32.2294C43.5921 32.7334 43.088 32.8055 42.62 32.5535C38.12 30.1775 34.0881 34.6774 35.8881 39.9694C40.4601 53.2174 44.0601 53.1812 50.8281 39.8252C53.7441 34.0292 49.8561 29.3494 44.5281 32.2294ZM48.74 36.1894C48.416 37.4494 47.012 39.2134 45.536 41.4094C42.908 45.4414 43.3041 45.3333 42.0081 42.4173C40.8201 39.7893 39.02 38.3135 38.696 37.1615C38.264 35.5415 38.984 32.1215 41.756 35.2535C43.16 36.8375 44.6001 36.9455 45.0681 35.3615C46.2921 31.4015 49.244 34.2814 48.74 36.1894Z" fill="#FD4A9E"/>
<path d="M69.0455 25.3553C81.7895 13.8713 85.4254 3.17906 76.3174 3.89906L74.0495 4.07906L73.1495 2.71113C71.5295 0.299128 68.7574 -0.601013 65.8774 0.406987C60.8734 2.17099 59.0375 7.31913 59.9735 16.9311C61.1975 29.2431 62.9615 30.8273 69.0455 25.3553ZM63.6814 10.6311C63.9334 3.64713 66.5975 -0.0609425 69.5135 2.45906C71.0615 3.79106 71.6015 5.95113 70.6295 6.85113C66.7415 10.4871 65.7694 15.3111 68.9374 15.3111C71.5294 15.3111 74.0135 12.0712 74.5895 8.0032C75.0575 4.4032 77.9735 4.51099 77.9735 8.14699C77.9735 10.019 77.0734 11.5671 73.4374 16.0311C71.2054 18.7671 64.9774 25.1752 64.7614 24.9232C64.3654 24.4912 63.5734 14.3031 63.6814 10.6311Z" fill="#FD4A9E"/>
<path d="M80.6364 70.931C79.5564 71.147 79.4485 71.0749 79.4485 70.3189C79.4485 68.2669 76.2804 67.0431 73.5804 68.0151C67.8564 70.1031 63.0324 79.9311 64.2204 87.0951C65.0124 91.9551 86.2885 80.1469 86.2885 74.8189C86.2885 72.1909 83.6604 70.319 80.6364 70.931ZM67.6404 85.3668C67.3524 85.0788 70.2325 76.0069 71.3485 73.7389C73.1845 69.9589 75.4525 68.591 75.4525 71.291C75.4525 71.723 74.9124 72.803 74.3004 73.631C71.9964 76.619 72.1044 76.5469 72.5364 76.9789C73.3644 77.8069 76.1725 76.655 78.0445 74.711C80.2045 72.479 82.6885 72.4788 82.6885 74.7468C82.6885 76.3308 68.5764 86.3028 67.6404 85.3668Z" fill="#FD4A9E"/>
<path d="M37.7596 72.2614C39.2356 71.6854 42.8717 61.9654 42.9077 58.5814C42.9077 54.4054 39.2717 52.3532 35.4557 54.4052C34.9157 54.6932 34.4477 55.0894 34.4477 55.2334C34.4477 55.4134 33.3677 55.5212 32.0717 55.4852C27.6797 55.4132 26.7437 57.6812 28.8317 63.4052C31.1357 69.7412 34.7716 73.3774 37.7596 72.2614ZM32.9717 58.6893C34.2677 60.8493 36.6077 60.4174 36.6077 58.0414C36.6077 56.1694 38.2278 55.0172 38.6238 56.6372C39.0198 58.2572 36.4278 67.1493 35.5638 67.1493C34.9518 67.1493 32.1796 61.0292 31.9996 59.2652C31.7836 57.1052 31.9637 56.9973 32.9717 58.6893Z" fill="#FD4A9E"/>
<path d="M39.6684 89.2529C39.0924 89.5049 38.3723 90.0087 38.1203 90.2967C37.7603 90.7647 37.2564 90.8367 35.8524 90.6567C29.3364 89.8647 28.1484 96.5608 33.8364 102.249C38.9844 107.397 41.7564 106.893 43.8084 100.449C46.5804 91.7728 44.8164 86.9489 39.6684 89.2529ZM39.0924 101.745C36.1044 97.7486 33.0445 94.0046 33.5845 92.5646C34.0165 91.4846 35.4204 92.5286 36.2484 94.5446C37.1484 96.6686 40.0283 96.4167 39.7403 94.2567C39.3083 90.9447 41.3245 89.2168 41.8645 92.4208C42.2605 94.7968 39.3084 101.133 39.0924 101.745Z" fill="#FD4A9E"/>
<path d="M25.9897 14.3761C23.8657 15.5641 23.9018 15.5639 23.3258 14.0519C22.5338 11.8559 19.7617 11.1361 16.9897 12.3961C11.8417 14.7721 12.3096 23.592 18.1416 32.304C19.2576 33.96 19.3656 38.6758 25.1616 32.8078C28.3296 29.6038 33.1538 24.2759 34.4858 22.3319C38.8778 15.8879 33.0457 10.4161 25.9897 14.3761ZM32.8658 17.8319C32.5418 20.3159 23.6496 30.9718 21.2016 31.7998C20.5536 32.0158 17.7457 23.0159 17.3137 19.4519C16.7377 14.4119 19.2578 11.28 20.6258 15.384C20.9498 16.392 21.2016 17.832 21.2016 18.624C21.1656 21.252 23.6857 21.3598 24.9097 18.7678C27.2497 13.7638 33.4778 13.0799 32.8658 17.8319Z" fill="#FD4A9E"/>
</svg>
