<svg width="83" height="85" viewBox="0 0 83 85" fill="none" xmlns="http://www.w3.org/2000/svg">
<g clip-path="url(#clip0_777_4951)">
<path d="M60.6728 30.8511C60.0803 32.1157 59.8643 32.326 59.1993 32.5115C58.3691 32.7538 57.0695 34.2075 56.6809 35.3692C55.5343 38.8314 60.1613 44.3249 66.1986 46.695C70.7601 48.4911 71.5814 46.6746 69.9247 38.6246C67.8384 28.5688 63.4764 24.9039 60.6728 30.8511ZM65.3452 32.7013C66.8574 35.656 67.921 43.2467 66.7024 42.6928C65.0815 41.9184 61.4956 39.1013 60.2614 37.6335C57.9768 34.8523 58.2598 33.2103 60.6933 35.2549C61.9331 36.2965 63.1141 35.6831 62.8516 34.131C62.7764 33.7544 62.6075 32.7901 62.4763 32.014C62.0523 29.582 63.989 30.0736 65.3452 32.7013Z" fill="#FD4A9E"/>
<path d="M40.414 49.5106C40.2339 50.3775 40.0098 50.7377 39.5984 50.9011C35.672 52.4977 36.3813 57.48 40.7205 59.1676C51.6187 63.3504 53.5245 61.0352 48.6336 49.5629C46.4998 44.5978 41.4322 44.5697 40.414 49.5106ZM45.1961 48.9464C45.8261 49.8282 46.1987 51.6687 46.8083 53.7866C47.9714 57.6228 48.1147 57.3124 45.5608 56.5764C43.2483 55.9259 41.3426 56.2831 40.4344 55.8724C39.1698 55.2799 37.3747 52.9883 40.8573 52.8987C42.6197 52.8521 43.4601 51.9916 42.7007 50.8444C40.8312 47.9421 44.2494 47.6027 45.1961 48.9464Z" fill="#FD4A9E"/>
<path d="M49.1641 30.1932C48.669 15.913 43.7985 7.86533 39.3775 14.0594L38.2772 15.6021L36.9226 15.4431C34.5164 15.1838 32.4571 16.4693 31.5568 18.846C30.0005 22.9823 32.2998 26.9116 38.931 31.4649C47.4384 37.2812 49.3938 37.005 49.1641 30.1932ZM36.9002 25.7247C32.5814 21.8219 31.6442 18.1361 34.8136 17.6268C36.4925 17.3533 38.1593 18.1663 38.2125 19.2684C38.448 23.696 41.0035 26.9007 42.7009 24.8804C44.0897 23.2275 43.3546 19.9074 41.069 17.3604C39.024 15.133 40.6551 13.3312 42.9738 15.2794C44.1676 16.2824 44.6726 17.6859 45.5712 22.3965C46.12 25.2858 46.8695 32.691 46.5931 32.6938C46.1054 32.7148 39.184 27.761 36.9002 25.7247Z" fill="#FD4A9E"/>
<path d="M84.4396 47.2223C83.9987 48.0268 83.8949 48.057 83.4128 47.6519C82.1042 46.5524 79.6263 47.917 78.7994 50.1597C77.064 54.9287 80.7467 63.271 85.9518 66.3519C89.4755 68.4509 93.3451 48.5559 89.9474 45.7011C88.2715 44.293 85.6696 44.9659 84.4396 47.2223ZM86.6821 63.2449C86.3442 63.2743 82.1021 56.5767 81.2537 54.6498C79.8269 51.4536 80.1697 49.2744 81.8916 50.7211C82.1671 50.9525 82.5664 51.8756 82.7665 52.7096C83.4375 55.7798 83.4494 55.6723 83.9564 55.6283C84.9281 55.5439 85.6981 53.136 85.4614 50.9005C85.1954 48.3272 86.5262 46.743 87.9725 47.9582C88.9827 48.807 87.7805 63.1495 86.6821 63.2449Z" fill="#FD4A9E"/>
<path d="M74.1749 83.1646C74.027 83.667 73.9625 84.3961 74.0111 84.7111C74.1167 85.1915 73.8926 85.5514 73.0255 86.3503C69.0291 90.0813 72.6627 94.4267 79.3377 93.8471C85.379 93.3225 86.5429 91.2847 83.5329 86.5233C79.4854 80.1069 75.464 78.6472 74.1749 83.1646ZM81.8324 90.2251C77.6831 89.9895 73.656 89.9348 73.027 88.8189C72.5698 87.9647 73.9878 87.6288 75.7171 88.1809C77.5538 88.7451 78.9362 86.7735 77.4044 85.7998C75.0609 84.3007 75.0393 82.0892 77.3718 83.4616C79.0992 84.4821 81.5579 89.7595 81.8324 90.2251Z" fill="#FD4A9E"/>
<path d="M19.0922 51.7669C18.7118 53.758 18.731 53.7349 17.4581 53.2921C15.6334 52.6205 13.689 54.0026 13.0073 56.4455C11.7641 61.0015 17.6394 65.4289 26.32 66.3777C27.974 66.5534 31.0392 69.0112 30.4027 62.1709C30.0569 58.4339 29.2441 52.5028 28.718 50.6117C26.9619 44.3581 20.3476 45.1454 19.0922 51.7669ZM24.9803 49.2337C26.3908 50.7713 28.4217 62.1514 27.6381 64.1562C27.4286 64.6852 20.1848 61.6536 17.6805 60.0195C14.1578 57.6863 13.5108 54.4011 16.8609 55.7277C17.6774 56.0612 18.7306 56.6721 19.2357 57.0965C20.8923 58.5275 22.3113 56.9782 21.3142 54.8088C19.3769 50.6354 22.2778 46.2972 24.9803 49.2337Z" fill="#FD4A9E"/>
</g>
<defs>
<clipPath id="clip0_777_4951">
<rect width="65.2706" height="53.5553" fill="white" transform="translate(0 49.9727) rotate(-49.9629)"/>
</clipPath>
</defs>
</svg>
