<svg width="97" height="97" viewBox="0 0 97 97" fill="none" xmlns="http://www.w3.org/2000/svg">
<g clip-path="url(#clip0_777_5044)">
<path opacity="0.8" d="M33.3438 18.1875C27.3485 18.1875 21.4879 19.9653 16.503 23.2961C11.5182 26.6269 7.63295 31.361 5.33867 36.8999C3.04438 42.4388 2.4441 48.5336 3.61371 54.4137C4.78332 60.2937 7.67031 65.6949 11.9096 69.9342C16.1489 74.1735 21.55 77.0604 27.4301 78.2301C33.3101 79.3997 39.405 78.7994 44.9439 76.5051C50.4827 74.2108 55.2169 70.3256 58.5477 65.3407C61.8785 60.3559 63.6563 54.4952 63.6563 48.5C63.6563 40.4606 60.4626 32.7505 54.7779 27.0658C49.0932 21.3811 41.3831 18.1875 33.3438 18.1875ZM33.3438 57.5938C31.5452 57.5938 29.787 57.0604 28.2915 56.0612C26.7961 55.0619 25.6305 53.6417 24.9422 51.98C24.2539 50.3184 24.0739 48.4899 24.4247 46.7259C24.7756 44.9619 25.6417 43.3415 26.9135 42.0697C28.1853 40.798 29.8056 39.9319 31.5697 39.581C33.3337 39.2301 35.1621 39.4102 36.8238 40.0985C38.4855 40.7868 39.9057 41.9523 40.9049 43.4478C41.9042 44.9432 42.4375 46.7014 42.4375 48.5C42.4391 49.6947 42.205 50.8779 41.7485 51.9819C41.2921 53.0859 40.6223 54.0891 39.7776 54.9338C38.9328 55.7786 37.9297 56.4483 36.8257 56.9048C35.7217 57.3612 34.5384 57.5953 33.3438 57.5938Z" fill="white"/>
<path d="M67.415 40.9219C75.1168 43.1383 84.2081 40.9219 84.2081 40.9219C81.5697 52.4406 73.2035 59.655 61.1391 60.5329C58.7998 65.963 54.9202 70.5884 49.9802 73.8372C45.0402 77.086 39.2563 78.8157 33.3438 78.8125L42.4375 49.9089C51.7859 20.2002 56.5777 18.1875 78.747 18.1875H93.9688C91.4225 29.4031 82.6464 37.9707 67.415 40.9219Z" fill="white"/>
</g>
<defs>
<clipPath id="clip0_777_5044">
<rect width="97" height="97" fill="white"/>
</clipPath>
</defs>
</svg>
