<svg width="80" height="80" viewBox="0 0 80 80" fill="none" xmlns="http://www.w3.org/2000/svg">
<path d="M54.5877 58.6653C54.241 59.5187 54.3743 62.8789 54.7477 63.3589C55.3077 64.0523 56.3477 63.9187 56.5343 63.1453C57.121 60.772 55.361 56.7187 54.5877 58.6653Z" fill="#FD4A9E"/>
<path d="M25.573 25.7303C25.413 26.9035 25.4931 29.9435 25.5464 31.7569C25.5731 32.3169 25.9997 32.7435 26.533 32.7969C28.0797 32.9302 28.3997 29.9969 27.4131 25.1703C27.1731 23.9703 25.7864 24.3703 25.573 25.7303Z" fill="#FD4A9E"/>
<path d="M31.76 23.2519C34.0533 23.2519 35.3333 22.9054 35.3333 22.2654C35.3333 21.4387 33.4133 21.2253 30.5333 21.6786C27.44 22.212 28.2666 23.2519 31.76 23.2519Z" fill="#FD4A9E"/>
<path d="M25.52 11.439C24.88 11.7057 25.0667 19.9723 25.7067 20.3189C27.4667 21.2523 28.2401 20.2124 28.0267 17.3324C27.5201 11.3324 27.2801 10.719 25.52 11.439Z" fill="#FD4A9E"/>
<path d="M20.24 21.6274C18.4533 21.8408 18 22.0273 18 22.5873C18 23.4673 23.3333 23.6806 24.5867 22.854C26.08 21.8673 23.76 21.2008 20.24 21.6274Z" fill="#FD4A9E"/>
<path d="M54.8808 55.2016C55.3608 55.1483 55.7342 54.775 55.7342 54.295C55.8675 51.1483 55.9742 49.0683 54.0275 49.8416C53.6542 50.0016 53.5742 51.975 53.8675 54.055C54.0542 55.255 54.0808 55.2816 54.8808 55.2016Z" fill="#FD4A9E"/>
<path d="M56.9872 56.3454C56.1605 56.692 56.2405 57.3318 57.1472 57.5184C57.9472 57.7051 61.0938 57.252 61.7072 56.8787C62.8272 56.1587 58.5872 55.6787 56.9872 56.3454Z" fill="#FD4A9E"/>
<path d="M53.3337 56.3168C52.4804 55.9968 52.2937 55.9968 50.9337 56.3968C48.8804 57.0101 49.7337 57.8368 52.1071 57.5168C53.7604 57.3034 54.3471 56.7168 53.3337 56.3168Z" fill="#FD4A9E"/>
<path d="M50.239 43.7593C50.9057 42.6393 50.6924 41.226 49.759 40.346C47.439 38.1593 45.199 34.426 43.8924 30.5593C43.1457 28.3993 41.1724 19.7327 41.1724 18.6394C41.1724 17.2527 39.6524 16.5594 38.6924 17.5194C38.479 17.7327 38.2124 18.6661 38.1324 19.5994C37.6257 24.2928 34.8524 34.9327 33.279 38.1327C32.5057 39.706 30.9057 41.226 29.2257 41.9727C27.7857 42.6127 27.7857 42.7193 29.5724 44.266C33.119 47.3593 35.7324 53.466 37.5724 63.0127C39.2257 71.5727 42.1324 68.7993 41.8124 67.066C41.1457 63.706 45.0657 52.426 49.5457 44.906L50.239 43.7593ZM46.8257 42.666C44.239 45.9727 41.439 51.146 40.1057 55.1193L39.4924 56.986L39.1457 55.2527C36.719 43.4927 31.7857 42.906 31.2524 42.3993C31.839 41.786 37.1457 38.4527 39.599 30.7727C40.3457 28.4527 40.2124 28.4527 40.9324 30.6393C42.2924 34.7727 44.1857 38.1327 46.3724 40.3727L47.6257 41.6527L46.8257 42.666Z" fill="#FD4A9E"/>
</svg>
