<svg width="64" height="64" viewBox="0 0 64 64" fill="none" xmlns="http://www.w3.org/2000/svg">
<path d="M34.5967 23.0796C31.9301 20.285 29.8181 16.6796 28.4314 12.5836C27.3647 9.42631 25.8287 3.60233 25.8287 2.685C25.8287 1.25567 23.2687 0.679692 23.2687 3.45302C23.2687 4.88235 22.3301 13.181 19.4714 18.1517C16.7621 22.8876 15.7167 24.1038 13.8181 24.9145C12.7301 25.3625 12.9007 25.7036 14.4367 26.2369C18.2341 27.5596 19.9407 30.7383 23.3754 42.8556C25.3807 49.8956 26.6181 49.6823 27.6634 42.1089C28.6874 34.5783 32.4847 26.0236 35.1941 25.0849C36.0901 24.7863 36.0261 24.5943 34.5967 23.0796ZM25.6367 36.6903L25.2314 38.6103C25.0607 38.1623 22.8421 28.7543 18.9381 26.2369C17.8714 25.5543 17.6794 25.2769 18.2981 25.2769C20.2821 25.2769 23.3754 20.0076 24.3141 14.9303C24.7621 12.605 24.8261 12.5196 25.3807 13.9703C26.5327 17.0636 28.4314 19.9863 31.0341 22.6956L32.7407 24.4878C32.5061 24.7651 27.7061 26.6423 25.6367 36.6903Z" fill="#FD4A9E"/>
<path d="M35.9573 48.2096C32.6079 45.479 30.1546 40.6365 30.1546 36.6472C30.1546 34.8979 27.8293 32.8923 26.9546 37.863C25.8879 44.0283 25.1839 45.7136 22.7733 48.1243C20.7893 50.087 20.7679 49.959 23.2639 50.6416C25.5893 51.2817 27.3173 54.3539 28.4479 59.8792C29.1519 63.3139 31.6906 63.463 31.7973 59.9643C31.9466 55.0363 33.0773 52.2843 35.6373 50.663C37.2586 49.6176 37.3013 49.2976 35.9573 48.2096ZM33.3973 49.3405C32.6506 49.5965 30.6239 51.367 30.1546 52.135C29.5146 53.223 29.5359 53.223 28.7893 52.0283C28.1493 51.0043 26.6346 49.8736 25.6319 49.6817C24.8639 49.511 24.8853 49.4685 26.1226 48.2525C26.7199 47.6765 27.5519 46.503 27.9786 45.6496C28.9386 43.7936 28.8106 43.8152 29.7279 45.2872C30.4319 46.3965 31.5839 47.6123 33.0346 48.7643C33.4399 49.0416 33.5679 49.2765 33.3973 49.3405Z" fill="#FD4A9E"/>
</svg>
