<svg width="56" height="112" viewBox="0 0 56 112" fill="none" xmlns="http://www.w3.org/2000/svg">
<path fill-rule="evenodd" clip-rule="evenodd" d="M11.044 0.499002C10.4416 1.09793 10.8003 6.54599 11.5009 7.42885C11.8119 7.82104 11.7258 8.23542 11.2166 8.79442C10.2309 9.87737 10.1952 14.1032 11.1685 14.4745C11.8828 14.7469 11.6615 16.368 10.8374 16.8955C10.2988 17.2402 11.2394 20.8409 11.8681 20.8409C12.1211 20.8409 12.168 21.0867 11.9734 21.3955C11.7811 21.7007 11.6834 22.3112 11.7566 22.7531C11.8297 23.1945 11.6602 23.8307 11.38 24.1665C10.9431 24.6896 10.8271 27.5707 11.0002 33.5795C11.0158 34.1199 10.7057 34.8825 10.3108 35.2752C9.91636 35.6673 9.5933 36.3018 9.5933 36.6842C9.5933 37.0671 9.24927 37.6301 8.82938 37.9357C8.18548 38.4033 8.15826 38.6025 8.65669 39.1997C8.98198 39.5892 9.42642 39.7986 9.64372 39.6651C9.86148 39.5316 10.2617 39.5586 10.5335 39.7254C10.8842 39.941 10.8668 40.1274 10.4732 40.3696C10.0748 40.6141 10.1948 40.8567 10.9003 41.2321C11.7061 41.6611 11.832 42.0062 11.604 43.1655C11.4514 43.9415 11.1113 45.0102 10.849 45.5404C10.5665 46.1109 10.5161 47.0164 10.7249 47.7586C10.9195 48.4485 11.0109 49.2125 10.9284 49.4565C10.8458 49.7005 10.728 51.6921 10.666 53.8819C10.5968 56.3282 10.3612 57.9272 10.0547 58.0288C9.70441 58.145 9.72717 58.3992 10.1314 58.8832C10.5121 59.3393 10.7071 61.0012 10.708 63.7945C10.7084 66.7767 10.8726 68.0704 11.2666 68.2008C11.5736 68.3024 11.8244 68.6684 11.8244 69.014C11.8244 69.5775 12.1144 69.723 13.0015 69.605C13.5664 69.5296 13.9894 70.7261 13.6262 71.3712C13.0863 72.3308 14.2487 73.8476 16.5543 75.191C18.5605 76.3596 19.4101 76.3419 19.4101 75.1302C19.4101 74.6773 19.7613 74.5051 20.4917 74.6005C21.6756 74.7545 23.8723 73.156 23.8723 72.14C23.8723 71.8024 24.1824 71.27 24.5621 70.9568C24.9414 70.644 25.1547 70.1369 25.0365 69.8304C24.9178 69.5234 25.1061 69.1636 25.4546 69.0309C25.8084 68.8956 25.9722 68.4874 25.8249 68.1068C25.6804 67.7314 25.7839 67.4244 26.0556 67.4244C26.3274 67.4244 26.5496 67.2057 26.5496 66.9378C26.5496 66.6702 27.3367 65.5624 28.2992 64.4755C29.4603 63.1636 30.1541 61.8788 30.3621 60.6534C30.7066 58.6264 31.3786 57.1911 32.2389 56.6437C32.5459 56.4485 32.7966 56.0665 32.7966 55.7945C32.7966 54.9835 34.2781 51.8966 34.6672 51.8966C34.8658 51.8966 35.0277 51.2786 35.0277 50.523C35.0277 49.768 35.4066 48.6198 35.8693 47.972C37.216 46.0874 38.2155 43.3381 37.9442 42.264C37.7523 41.5031 37.8523 41.3328 38.3744 41.532C38.9299 41.7441 39.0401 41.4144 38.9763 39.7365C38.8982 37.6749 39.7166 36.4193 41.1632 36.383C41.6759 36.3701 41.8009 35.6886 41.9075 32.3213C41.9281 31.6691 42.5068 30.5959 43.2239 29.8812C44.2502 28.8577 44.3604 28.5764 43.7817 28.4615C42.7687 28.2601 42.8785 27.4957 43.9204 27.4957C45.1167 27.4957 46.297 26.202 46.0293 25.1843C45.8998 24.6918 46.0725 24.2344 46.4411 24.0938C46.7901 23.9607 47.0756 23.4855 47.0756 23.0379C47.0756 22.5902 47.2952 22.0894 47.5638 21.9243C47.8324 21.7593 47.9614 21.1519 47.8503 20.5743C47.6785 19.6817 47.7932 19.5605 48.616 19.7659C49.3951 19.9607 49.7516 19.679 50.449 18.317C50.9252 17.3871 51.8738 15.9275 52.5574 15.0734C53.2406 14.2194 53.9938 13.2793 54.2307 12.9847C54.4677 12.6901 54.6613 12.0411 54.6613 11.5428C54.6613 11.0335 54.9541 10.6369 55.3307 10.6369C55.813 10.6369 56 10.1458 56 8.87738C56 7.52557 55.6934 6.80641 54.6765 5.77181C53.9483 5.0318 53.059 4.42577 52.7002 4.42577C52.3415 4.42577 51.7324 4.11211 51.3464 3.72879C50.7092 3.09481 50.6454 3.09481 50.6454 3.72879C50.6454 4.11211 50.3379 4.42577 49.9622 4.42577C49.5861 4.42577 49.1818 4.67732 49.0631 4.98477C48.9261 5.33881 47.9034 5.55664 46.2711 5.57838C44.7562 5.59879 43.2422 5.89914 42.5965 6.30686C41.9923 6.6884 40.8844 7.12717 40.1343 7.28245C39.3846 7.43728 38.4868 7.95591 38.1392 8.43506C37.3873 9.47232 36.8126 9.56149 36.8126 8.64047C36.8126 7.80285 36.3552 7.80241 34.7439 8.63781C34.0412 9.00205 32.7132 9.30151 31.7927 9.30329C30.8726 9.30462 30.1193 9.48785 30.1193 9.71056C30.1193 9.93327 29.2863 10.2554 28.2684 10.4262C27.2502 10.597 25.7509 11.014 24.9361 11.3525C24.1213 11.691 22.9678 11.9679 22.3725 11.9679C21.7773 11.9679 21.1749 12.2673 21.0334 12.6333C20.8826 13.0246 20.2133 13.2988 19.4101 13.2988C18.6551 13.2988 17.9371 13.5748 17.8055 13.9151C17.6681 14.2718 17.2031 14.4368 16.7038 14.3072C16.175 14.1697 15.8404 14.3077 15.8404 14.6626C15.8404 15.0211 15.6083 14.9279 15.2344 14.419C14.8123 13.845 14.6623 12.4501 14.74 9.81526C14.8016 7.73631 14.6838 5.72301 14.4781 5.34147C14.2723 4.95993 13.9872 3.91823 13.8444 3.02693C13.7016 2.13519 13.2764 1.28826 12.8993 1.14452C12.5227 1.00033 12.3389 0.681786 12.4919 0.436003C12.8748 -0.180674 11.6749 -0.128323 11.044 0.499002ZM42.9843 15.0535C42.945 16.0428 42.6581 16.9066 42.3261 17.033C42.0021 17.1568 41.6072 18.0641 41.4488 19.0494C41.2904 20.0348 40.9856 20.8409 40.7715 20.8409C40.5573 20.8409 40.3824 21.1404 40.3824 21.5064C40.3824 21.8724 40.0812 22.1719 39.713 22.1719C39.3449 22.1719 39.0437 22.4713 39.0437 22.8374C39.0437 23.2034 38.834 23.5028 38.5779 23.5028C38.3217 23.5028 38.1446 23.7526 38.1847 24.0574C38.3614 25.4119 38.0955 26.0618 37.3873 26.0046C36.9451 25.9687 36.5569 26.3165 36.4646 26.8302C36.1879 28.3755 35.038 30.5356 33.7395 31.9486C32.8551 32.9114 32.5459 33.6372 32.6936 34.4047C32.86 35.2694 32.7538 35.4371 32.1804 35.2184C31.6994 35.0351 31.458 35.1811 31.458 35.6558C31.458 36.048 31.1568 36.3688 30.7887 36.3688C30.4205 36.3688 30.1135 36.0196 30.1064 35.5924C30.0961 34.9988 29.7811 35.1567 28.7677 36.2649C28.0386 37.0617 27.442 38.0316 27.442 38.4202C27.442 38.957 27.1672 39.0582 26.2979 38.8412C25.4367 38.6265 24.8027 38.8514 23.7322 39.7521C22.9504 40.41 22.3609 41.1158 22.4221 41.3204C22.5827 41.8559 21.7483 41.78 21.4047 41.2272C21.0089 40.591 19.7461 41.654 20.0286 42.3856C20.3574 43.2378 19.8197 43.4943 19.1339 42.8124C18.7948 42.4752 18.5177 41.6465 18.5177 40.9699C18.5177 40.0613 18.6484 39.8705 19.0183 40.2383C19.7193 40.9353 20.7488 40.437 20.7488 39.4007C20.7488 38.9242 20.9089 38.6332 21.1048 38.7534C21.5827 39.0471 22.1954 38.5702 22.8594 37.3874C23.2052 36.7707 23.2462 36.3106 22.9709 36.1412C22.2641 35.7068 22.4694 35.0391 23.3145 35.0232C24.144 35.0072 26.1034 33.5808 26.1034 32.9926C26.1034 32.7996 25.8673 32.8768 25.5786 33.1638C24.8459 33.8923 23.9 33.0316 24.1958 31.9065C24.3796 31.2082 24.5568 31.1328 25.053 31.5423C25.397 31.8262 25.7982 31.9398 25.9441 31.7947C26.09 31.6496 26.4929 31.8124 26.8387 32.1563C27.637 32.95 28.7807 32.5369 28.7807 31.4549C28.7807 30.903 29.0029 30.714 29.45 30.8843C29.8739 31.0463 30.1193 30.8786 30.1193 30.4269C30.1193 30.0347 30.3201 29.714 30.5656 29.714C30.811 29.714 31.0118 29.4358 31.0118 29.096C31.0118 28.7561 31.313 28.363 31.6811 28.2224C32.0492 28.0822 32.3504 27.7615 32.3504 27.5095C32.3504 27.2579 32.0492 27.0521 31.6811 27.0521C31.313 27.0521 31.0118 26.7393 31.0118 26.3568C31.0118 25.8631 31.271 25.7433 31.9042 25.9429C32.4508 26.1155 32.7966 26.0228 32.7966 25.7033C32.7966 25.4167 33.0978 25.2974 33.466 25.438C33.8377 25.5796 34.1353 25.4505 34.1353 25.147C34.1353 24.8462 34.5864 24.4034 35.1375 24.1625C35.6886 23.9216 36.4253 23.1275 36.7751 22.3972C37.125 21.667 37.6778 20.8045 38.0045 20.4802C38.834 19.6555 38.7479 19.0605 37.6274 17.8747C36.4249 16.6023 35.4235 16.5685 34.5686 17.7713C34.2076 18.2788 33.5628 18.884 33.1358 19.1156C32.3669 19.5321 32.3165 19.1648 32.7467 16.2935C32.7743 16.1102 33.2772 15.9607 33.8644 15.9607C34.4517 15.9607 35.0402 15.6808 35.1723 15.3383C35.3147 14.9701 36.0175 14.7247 36.8934 14.738C38.9741 14.7691 41.8468 14.2385 42.3596 13.7287C43.0168 13.0752 43.0588 13.1635 42.9843 15.0535ZM24.9294 17.8724C24.8843 18.4217 25.1578 18.5224 26.1565 18.3236C27.5746 18.0419 27.7423 18.4128 26.7727 19.6861C26.0124 20.6852 26.2729 21.2846 27.4684 21.2846C29.2345 21.2846 28.0846 23.1013 26.1783 23.3218C25.0735 23.4496 24.6268 23.2255 23.8643 22.1608C22.8732 20.777 21.195 20.3658 21.195 21.5064C21.195 21.9203 21.6162 22.1719 22.3105 22.1719C23.6505 22.1719 23.771 23.0752 22.5336 23.8436C21.547 24.4558 21.3221 25.7198 22.199 25.7233C22.506 25.7246 22.1543 26.0995 21.4181 26.5561C20.6341 27.0423 19.9036 27.2255 19.6555 26.9975C18.8711 26.2774 18.453 26.6004 18.5971 27.8142C18.739 29.0063 18.4347 29.151 16.3611 28.8759C15.6494 28.7814 15.9876 27.2699 16.8582 26.6563C17.6466 26.1004 17.6614 25.9984 17.0068 25.6341C16.607 25.4114 16.1032 25.3378 15.8872 25.4704C15.6717 25.6031 15.2473 25.4141 14.9439 25.0507C14.5142 24.5361 14.5106 24.2482 14.9274 23.7491C15.2219 23.3964 15.3964 22.6479 15.3152 22.0854C15.0702 20.3871 16.2165 19.5951 18.8563 19.6399C20.1468 19.6617 21.4422 19.4416 21.7345 19.151C22.0267 18.8605 22.6273 18.6227 23.0691 18.6227C23.5108 18.6227 23.8486 18.4731 23.8196 18.2899C23.6715 17.3578 23.9316 16.7948 24.4301 16.9696C24.7371 17.0774 24.9615 17.4834 24.9294 17.8724ZM30.7887 21.7282C30.9404 21.9722 30.8516 22.1719 30.5919 22.1719C30.3322 22.1719 30.1193 21.9722 30.1193 21.7282C30.1193 21.4842 30.2077 21.2846 30.3161 21.2846C30.4246 21.2846 30.637 21.4842 30.7887 21.7282ZM13.4678 25.8045C13.3255 26.1581 13.2197 26.0529 13.1983 25.5361C13.1791 25.0685 13.2844 24.8067 13.4326 24.954C13.5807 25.1013 13.5968 25.4842 13.4678 25.8045ZM27.442 30.0374C27.0739 30.1767 26.6545 30.47 26.5103 30.6887C26.3658 30.9078 25.99 30.7778 25.6746 30.4003C25.1761 29.8031 25.2975 29.7184 26.6067 29.749C27.434 29.7681 27.8102 29.8981 27.442 30.0374ZM17.4744 37.367C17.3508 37.6722 17.2495 37.4224 17.2495 36.8124C17.2495 36.2024 17.3508 35.9531 17.4744 36.2578C17.5985 36.5631 17.5985 37.0622 17.4744 37.367ZM17.179 41.0533C17.179 41.4335 16.9782 41.6216 16.7328 41.4708C16.4874 41.3199 16.2866 41.0089 16.2866 40.7791C16.2866 40.5493 16.4874 40.3616 16.7328 40.3616C16.9782 40.3616 17.179 40.6731 17.179 41.0533ZM24.7647 41.4708C24.7647 41.8368 24.5639 42.1362 24.3185 42.1362C24.0731 42.1362 23.8723 41.8368 23.8723 41.4708C23.8723 41.1047 24.0731 40.8053 24.3185 40.8053C24.5639 40.8053 24.7647 41.1047 24.7647 41.4708ZM22.5336 44.8456C22.5336 45.0635 22.2324 45.2418 21.8643 45.2418C21.4962 45.2418 21.195 44.9486 21.195 44.5901C21.195 44.1935 21.4565 44.0386 21.8643 44.1939C22.2324 44.3345 22.5336 44.6278 22.5336 44.8456ZM19.7354 45.0661C19.5873 45.2134 19.2022 45.2294 18.8804 45.1012C18.5244 44.9596 18.6301 44.8545 19.15 44.8332C19.6203 44.8141 19.8835 44.9188 19.7354 45.0661ZM27.442 45.9073C27.442 46.2733 27.2412 46.5728 26.9958 46.5728C26.7504 46.5728 26.5496 46.2733 26.5496 45.9073C26.5496 45.5413 26.7504 45.2418 26.9958 45.2418C27.2412 45.2418 27.442 45.5413 27.442 45.9073ZM20.896 47.2751C20.7626 47.6207 20.8541 47.9037 21.0995 47.9037C21.3449 47.9037 21.6501 47.6327 21.7782 47.3012C22.024 46.6637 24.5916 45.9703 25.2373 46.3669C25.447 46.496 25.5054 46.8931 25.368 47.2498C25.2301 47.6069 24.9477 47.7941 24.7402 47.6668C24.5331 47.5395 24.1574 47.8181 23.9053 48.2862C23.5367 48.9707 23.6121 49.1797 24.2917 49.3562C24.7558 49.4769 25.3546 49.358 25.6224 49.0918C25.9731 48.7431 26.082 48.9295 26.0123 49.7626C25.9276 50.7808 25.7928 50.87 24.8651 50.5195C23.4854 49.9978 23.5349 49.9734 23.6496 51.1202C23.7045 51.669 23.6648 51.7844 23.5613 51.3762C23.4578 50.968 22.7527 50.4192 21.9942 50.1562C20.1468 49.516 19.7126 49.5537 20.0121 50.3296C20.3855 51.2972 19.5382 51.5967 19.0049 50.6859C18.6047 50.0026 18.5431 49.9942 18.5311 50.6224C18.5239 51.0195 18.237 51.5758 17.8943 51.8584C17.2504 52.3899 17.4258 54.1149 18.1237 54.1149C19.0861 54.1149 18.3999 55.2306 17.4017 55.2879C16.7149 55.3274 16.2866 55.1144 16.2866 54.7333C16.2866 54.393 16.5378 54.1087 16.8443 54.1007C17.1848 54.0922 17.0982 53.8571 16.6212 53.4973C15.6842 52.7901 15.6454 51.6251 16.5097 50.122C17.0786 49.1326 17.15 49.1087 17.1732 49.9002C17.1973 50.728 17.2535 50.7165 18.0201 49.7254C18.4788 49.1326 19.0656 48.8012 19.349 48.9751C19.6453 49.157 19.8563 48.9991 19.8563 48.5954C19.8563 48.2152 19.5551 47.9037 19.187 47.9037C18.8189 47.9037 18.5177 47.583 18.5177 47.1908C18.5177 46.7391 18.7631 46.5714 19.187 46.7334C19.5551 46.8736 19.8563 46.8012 19.8563 46.5728C19.8563 46.3443 20.145 46.2671 20.4975 46.4015C20.85 46.5359 21.0294 46.929 20.896 47.2751ZM18.0714 48.0994C18.0714 48.2072 17.8707 48.4184 17.6252 48.5692C17.3798 48.72 17.179 48.6318 17.179 48.3736C17.179 48.1153 17.3798 47.9037 17.6252 47.9037C17.8707 47.9037 18.0714 47.9916 18.0714 48.0994ZM28.1439 49.9312C27.5063 50.5652 27.442 50.5652 27.442 49.9317C27.442 49.5483 27.6428 49.2347 27.8883 49.2347C28.1337 49.2347 28.3577 48.8855 28.3862 48.4583C28.4353 47.7196 28.4478 47.7196 28.6419 48.4574C28.7539 48.8842 28.5299 49.5475 28.1439 49.9312ZM22.6322 52.7666C22.5452 53.1437 22.9107 53.2156 23.8593 53.0084C25.5514 52.6388 25.5478 52.8243 23.8281 54.5341C23.0187 55.3393 22.5506 56.1805 22.6987 56.5647C22.838 56.9254 22.742 57.2204 22.4859 57.2204C22.2298 57.2204 22.0807 56.6463 22.1548 55.9449C22.2289 55.2435 22.0397 54.3704 21.7345 54.0048C21.1017 53.2466 21.4944 51.7644 22.2539 52.0443C22.5305 52.1459 22.701 52.4711 22.6322 52.7666ZM17.8189 58.4662C17.565 59.3681 17.4374 59.4702 17.2982 58.8841C17.1964 58.4569 16.9273 58.1077 16.7002 58.1077C16.4727 58.1077 16.2866 57.6024 16.2866 56.9848C16.2866 56.3668 15.9867 55.7471 15.6199 55.6073C15.2531 55.4671 15.0572 55.1854 15.1844 54.9809C15.3111 54.7763 16.0318 55.208 16.7854 55.9405C17.9171 57.0403 18.0969 57.4795 17.8189 58.4662ZM19.8563 61.3504C19.8563 61.6698 19.5614 62.3184 19.2013 62.7923C18.5815 63.6068 18.5453 63.5753 18.5319 62.2115C18.5221 61.2195 18.7265 60.7696 19.187 60.7696C19.5551 60.7696 19.8563 61.031 19.8563 61.3504ZM7.90347 93.8178C5.67729 95.0751 4.47205 96.2672 4.42476 97.2601C4.31097 99.6341 4.30205 99.6443 2.44489 99.5498C0.240121 99.438 -0.400648 100.3 0.230751 102.527C1.14862 105.766 2.93082 108.24 4.34533 108.24C4.8094 108.24 5.70496 108.85 6.33591 109.596C6.96686 110.341 7.74685 110.85 8.06902 110.728C8.39164 110.605 8.77895 110.892 8.93022 111.365C9.18947 112.178 9.28184 112.187 10.5669 111.526C11.3157 111.141 12.3068 110.924 12.769 111.044C13.2313 111.165 13.6111 111.132 13.6128 110.972C13.6169 110.617 15.8109 109.571 16.5507 109.571C17.1986 109.571 17.6801 108.455 17.374 107.662C17.0545 106.835 18.3535 103.961 19.1919 103.642C19.7443 103.431 19.8313 103.014 19.5899 101.733C19.4195 100.832 19.2454 99.7809 19.2022 99.398C19.1035 98.5201 18.5806 97.1261 18.0264 96.2619C17.7917 95.8958 17.49 95.2805 17.3566 94.8945C17.0161 93.9087 12.6535 92.5458 12.1849 93.2787C11.9533 93.6412 11.836 93.6558 11.8311 93.3227C11.8199 92.5001 9.78205 92.757 7.90347 93.8178ZM8.70086 94.2392C8.70086 94.3471 8.50007 94.5582 8.25465 94.7091C8.00923 94.8599 7.80843 94.7716 7.80843 94.5134C7.80843 94.2552 8.00923 94.0436 8.25465 94.0436C8.50007 94.0436 8.70086 94.1314 8.70086 94.2392ZM14.0555 98.4739C14.0555 98.9846 11.4603 100.255 10.417 100.255C9.27024 100.255 9.38581 99.1762 10.5973 98.5782C12.4741 97.6514 14.0555 97.6035 14.0555 98.4739Z" fill="#FD4A9E"/>
</svg>
